<?xml version="1.0" encoding="UTF-8" standalone="no"?>
<svg
   viewBox="0 0 181.73 210"
   width="181.73"
   height="210"
   version="1.1"
   id="svg15"
   sodipodi:docname="logo.svg"
   inkscape:version="1.4.3 (0d15f75, 2025-12-25)"
   inkscape:export-filename="logo-large.png"
   inkscape:export-xdpi="253.56299"
   inkscape:export-ydpi="253.56299"
   xmlns:inkscape="http://www.inkscape.org/namespaces/inkscape"
   xmlns:sodipodi="http://sodipodi.sourceforge.net/DTD/sodipodi-0.dtd"
   xmlns="http://www.w3.org/2000/svg"
   xmlns:svg="http://www.w3.org/2000/svg">
  <defs
     id="defs15" />
  <sodipodi:namedview
     id="namedview15"
     pagecolor="#ffffff"
     bordercolor="#000000"
     borderopacity="0.25"
     inkscape:showpageshadow="2"
     inkscape:pageopacity="0.0"
     inkscape:pagecheckerboard="0"
     inkscape:deskcolor="#d1d1d1"
     inkscape:zoom="4.8047619"
     inkscape:cx="90.847374"
     inkscape:cy="104.89594"
     inkscape:window-width="1500"
     inkscape:window-height="1269"
     inkscape:window-x="0"
     inkscape:window-y="25"
     inkscape:window-maximized="0"
     inkscape:current-layer="svg15" />
  <!-- Hex sticker for paneffectR - Wes Anderson Darjeeling1 palette -->
  <!-- Colors: #FF0000 (red), #00A08A (teal), #F2AD00 (gold), #F98400 (orange), #5BBCD6 (blue) -->
  <!-- Hex background - warm orange/red -->
  <polygon
     points="90.87,5 176.73,50 176.73,160 90.87,205 5,160 5,50"
     fill="#F98400"
     stroke="#FF0000"
     stroke-width="6"
     id="polygon1" />
  <!-- Inner glow/gradient effect -->
  <polygon
     points="90.87,15 166.73,55 166.73,155 90.87,195 15,155 15,55"
     fill="none"
     stroke="#F2AD00"
     stroke-width="2"
     opacity="0.5"
     id="polygon2" />
  <!-- Package name - at top, teal for contrast, bolder -->
  <text
     x="99.135063"
     y="49.19175"
     font-family="'Arial Black', Gadget, sans-serif"
     font-size="24.3007px"
     font-weight="900"
     fill="#00a08a"
     text-anchor="middle"
     stroke="#1a1a1a"
     stroke-width="0.607517"
     id="text2"
     transform="scale(0.91382235,1.0943046)">paneffectR</text>
  <!-- Frying pan - larger, offset down -->
  <!-- Pan body -->
  <ellipse
     cx="77.294342"
     cy="114.39049"
     rx="57.935925"
     ry="54.017193"
     fill="#2c2c2c"
     stroke="#1a1a1a"
     stroke-width="1.96561"
     id="ellipse2" />
  <ellipse
     cx="76.56591"
     cy="114.18237"
     rx="52.479683"
     ry="48"
     fill="#3d3d3d"
     id="ellipse3"
     style="stroke-width:0.995079" />
  <!-- Pan handle - angled toward bottom right, shorter to stay in hex -->
  <g
     transform="matrix(0.66487611,0.81614995,-0.79236849,0.68483113,113.84183,151.62448)"
     id="g5">
    <rect
       x="0"
       y="-7"
       width="32"
       height="14"
       rx="3"
       fill="#2c2c2c"
       stroke="#1a1a1a"
       stroke-width="1"
       id="rect3" />
    <rect
       x="4"
       y="-4"
       width="24"
       height="8"
       rx="2"
       fill="#5c4033"
       id="rect4" />
    <line
       x1="10"
       y1="-4"
       x2="10"
       y2="4"
       stroke="#4a3528"
       stroke-width="1"
       id="line4" />
    <line
       x1="18"
       y1="-4"
       x2="18"
       y2="4"
       stroke="#4a3528"
       stroke-width="1"
       id="line5" />
  </g>
  <!-- Protein 1 - Teal alpha helix (left) -->
  <g
     transform="rotate(-15,405.59123,-115.31156)"
     id="g8">
    <!-- Helix coils -->
    <ellipse
       cx="0"
       cy="0"
       rx="13"
       ry="6"
       fill="#00a08a"
       stroke="#1a1a1a"
       stroke-width="1.5"
       id="ellipse5" />
    <ellipse
       cx="4"
       cy="10"
       rx="13"
       ry="6"
       fill="#00a08a"
       stroke="#1a1a1a"
       stroke-width="1.5"
       id="ellipse6" />
    <ellipse
       cx="2"
       cy="20"
       rx="13"
       ry="6"
       fill="#00a08a"
       stroke="#1a1a1a"
       stroke-width="1.5"
       id="ellipse7" />
    <ellipse
       cx="5"
       cy="30"
       rx="12"
       ry="5"
       fill="#00a08a"
       stroke="#1a1a1a"
       stroke-width="1.5"
       id="ellipse8" />
    <!-- Helix connector/backbone hint -->
    <path
       d="m -6,2 q 16,12 2,20 16,8 6,14"
       stroke="#007a6a"
       stroke-width="2"
       fill="none"
       id="path8" />
  </g>
  <!-- Protein 2 - Blue ribbon/beta sheet (top center-right) -->
  <g
     transform="translate(68.131814,89.177403)"
     id="g11">
    <!-- Wavy ribbon with shadow -->
    <path
       d="M 0,0 Q 12,-12 24,0 36,12 48,0"
       fill="none"
       stroke="#1a1a1a"
       stroke-width="11"
       stroke-linecap="round"
       opacity="0.3"
       id="path9" />
    <path
       d="M 0,0 Q 12,-12 24,0 36,12 48,0"
       fill="none"
       stroke="#5bbcd6"
       stroke-width="8"
       stroke-linecap="round"
       id="path10" />
    <path
       d="M 0,0 Q 12,-12 24,0 36,12 48,0"
       fill="none"
       stroke="#7fcce0"
       stroke-width="3"
       stroke-linecap="round"
       opacity="0.5"
       id="path11" />
    <!-- Arrow head suggesting direction -->
    <polygon
       points="42,-6 42,6 48,0 "
       fill="#5bbcd6"
       stroke="#1a1a1a"
       stroke-width="1"
       id="polygon11" />
  </g>
  <!-- Protein 3 - Teal loop/coil (bottom left) -->
  <g
     transform="translate(72.549058,118.16155)"
     id="g13">
    <path
       d="m 0,0 c 14,-14 28,14 42,0 10,-10 6,20 -8,17"
       fill="none"
       stroke="#1a1a1a"
       stroke-width="9"
       stroke-linecap="round"
       opacity="0.4"
       id="path12" />
    <path
       d="m 0,0 c 14,-14 28,14 42,0 10,-10 6,20 -8,17"
       fill="none"
       stroke="#00a08a"
       stroke-width="6"
       stroke-linecap="round"
       id="path13" />
  </g>
  <!-- Protein 4 - Blue small helix (center right) -->
  <g
     transform="rotate(20,-330.27115,306.80256)"
     id="g15">
    <ellipse
       cx="0"
       cy="0"
       rx="10"
       ry="5"
       fill="#5bbcd6"
       stroke="#1a1a1a"
       stroke-width="1.2"
       id="ellipse13" />
    <ellipse
       cx="3"
       cy="9"
       rx="10"
       ry="5"
       fill="#5bbcd6"
       stroke="#1a1a1a"
       stroke-width="1.2"
       id="ellipse14" />
    <ellipse
       cx="1"
       cy="18"
       rx="10"
       ry="5"
       fill="#5bbcd6"
       stroke="#1a1a1a"
       stroke-width="1.2"
       id="ellipse15" />
    <path
       d="M -5,1 Q 7,9 -3,17"
       stroke="#4a9fc2"
       stroke-width="1.5"
       fill="none"
       id="path15" />
  </g>
</svg>
